<svg width="97" height="97" viewBox="0 0 97 97" fill="none" xmlns="http://www.w3.org/2000/svg">
<path d="M18.2632 41.6342C19.6724 35.6599 22.8446 30.247 27.3681 26.0979C31.8917 21.9487 37.5578 19.2548 43.6314 18.3658C49.7049 17.4767 55.9054 18.4335 61.4285 21.112C66.9515 23.7905 71.542 28.0671 74.6045 33.3868" stroke="#5435EB" stroke-width="0.89623" stroke-linecap="round" stroke-linejoin="round"/>
<path d="M77.8674 55.7049C76.456 61.6787 73.2819 67.0904 68.7568 71.2379C64.2317 75.3854 58.5646 78.0772 52.4907 78.9641C46.4169 79.8509 40.2167 78.8919 34.6946 76.2114C29.1726 73.5309 24.5836 69.2526 21.5231 63.9318" stroke="#5435EB" stroke-width="0.89623" stroke-linecap="round" stroke-linejoin="round"/>
<path d="M74.7543 70.4235C62.587 84.9826 40.9209 86.9216 26.3617 74.7543C11.8026 62.587 9.86358 40.9209 22.0309 26.3617C34.1982 11.8025 55.8643 9.86356 70.4235 22.0309C84.9826 34.1982 86.9216 55.8643 74.7543 70.4235Z" stroke="#5435EB" stroke-width="0.89623" stroke-linecap="round" stroke-dasharray="59.75 11.95 65.72 17.92 23.9 5.97"/>
<path d="M26.1675 55.8721C26.2564 56.559 26.0909 57.1749 25.6709 57.7196C25.2637 58.2478 24.7239 58.5554 24.0516 58.6424L21.0041 59.0366C20.3318 59.1236 19.7242 58.9645 19.1813 58.5591C18.6366 58.1392 18.3198 57.5857 18.2309 56.8988L18.1146 55.9999C18.0787 55.7222 18.1435 55.476 18.3089 55.2614C18.4871 55.0303 18.715 54.8968 18.9927 54.8609L19.6066 54.7815C19.8843 54.7456 20.1314 54.8176 20.3479 54.9977C20.5625 55.1631 20.6877 55.3847 20.7236 55.6624L20.786 56.1447C20.8106 56.3347 20.9252 56.4165 21.1298 56.39L23.2565 56.1149C23.3296 56.1054 23.3916 56.0677 23.4425 56.0017C23.508 55.9338 23.536 55.8633 23.5266 55.7902L23.4216 54.979C23.4065 54.8621 23.3376 54.7892 23.215 54.7605L19.9055 54.1632C19.2944 54.0342 18.7667 53.7459 18.3224 53.2981C17.8927 52.8484 17.6372 52.3093 17.5559 51.6808L17.3971 50.453C17.3385 49.9999 17.3951 49.5765 17.5671 49.1827C17.7537 48.7871 18.0155 48.456 18.3526 48.1895C18.6877 47.9083 19.0818 47.7385 19.5349 47.6799L22.5824 47.2856C23.0355 47.227 23.4599 47.291 23.8556 47.4776C24.2493 47.6496 24.5795 47.9041 24.846 48.2411C25.1125 48.5781 25.2751 48.9732 25.3337 49.4263L25.4471 50.3033C25.4831 50.581 25.4192 50.8345 25.2557 51.0637C25.0903 51.2783 24.8687 51.4035 24.591 51.4394L23.9771 51.5189C23.6994 51.5548 23.4533 51.49 23.2387 51.3246C23.0222 51.1446 22.896 50.9157 22.8601 50.638L22.8062 50.2214C22.7948 50.1337 22.7488 50.0654 22.6682 50.0163C22.6022 49.9654 22.5326 49.9447 22.4595 49.9542L20.3329 50.2293C20.1282 50.2558 20.0392 50.3713 20.0656 50.5759L20.1649 51.3433C20.1838 51.4894 20.2536 51.5696 20.3743 51.5837L23.6838 52.181C24.3077 52.2934 24.8271 52.5755 25.2422 53.027C25.6719 53.4767 25.9274 54.0158 26.0087 54.6443L26.1675 55.8721ZM34.65 56.246C34.6859 56.5237 34.6221 56.7771 34.4586 57.0063C34.2931 57.2209 34.0716 57.3462 33.7939 57.3821L30.7245 57.7792C30.0521 57.8662 29.4445 57.707 28.9017 57.3017C28.3716 56.8798 28.0621 56.3254 27.9732 55.6385L26.504 44.2817C26.4662 43.9894 26.53 43.7359 26.6955 43.5213C26.8609 43.3067 27.0825 43.1815 27.3602 43.1455L27.974 43.0661C28.2518 43.0302 28.4979 43.0949 28.7125 43.2604C28.9417 43.4239 29.0752 43.6519 29.113 43.9442L29.3967 46.1366C29.4193 46.312 29.5257 46.3874 29.7157 46.3628L32.3247 46.0253C32.6024 45.9894 32.8495 46.0615 33.066 46.2415C33.2806 46.4069 33.4068 46.6358 33.4446 46.9281L33.5212 47.5201C33.5533 47.7686 33.4886 48.0147 33.3269 48.2585C33.1323 48.4769 32.9107 48.6022 32.6622 48.6343L30.0532 48.9718C29.8632 48.9964 29.7814 49.111 29.8079 49.3156L30.5283 54.8844C30.5529 55.0744 30.6602 55.1571 30.8502 55.1326L33.4592 54.795C33.7369 54.7591 33.983 54.8239 34.1976 54.9893C34.4122 55.1547 34.5384 55.3836 34.5762 55.6759L34.65 56.246ZM44.1737 53.5427C44.2626 54.2297 44.0971 54.8455 43.6771 55.3902C43.2699 55.9185 42.7301 56.2261 42.0578 56.3131L39.0103 56.7073C38.338 56.7943 37.7304 56.6351 37.1875 56.2298C36.6428 55.8098 36.326 55.2564 36.2371 54.5694L35.928 52.1797C35.8694 51.7266 35.927 51.3104 36.1008 50.9313C36.2874 50.5356 36.5493 50.2045 36.8863 49.938C37.2233 49.6715 37.6184 49.509 38.0715 49.4503L40.6586 49.1157C40.7317 49.1062 40.7937 49.0685 40.8446 49.0024C40.9101 48.9345 40.9372 48.8567 40.9258 48.769L40.8124 47.892C40.801 47.8043 40.755 47.736 40.6744 47.687C40.6084 47.6361 40.5388 47.6154 40.4657 47.6248L37.8787 47.9595C37.6009 47.9954 37.3475 47.9316 37.1183 47.7681C36.9037 47.6026 36.7784 47.3811 36.7425 47.1034L36.6659 46.5114C36.6281 46.2191 36.6919 45.9656 36.8573 45.751C37.0355 45.5199 37.2634 45.3864 37.5411 45.3505L40.5886 44.9563C41.0417 44.8976 41.4652 44.9543 41.8589 45.1263C42.2527 45.2983 42.5838 45.5601 42.8522 45.9117C43.1187 46.2488 43.2813 46.6439 43.3399 47.097L44.1737 53.5427ZM41.5328 53.4608L41.3371 51.948C41.3276 51.875 41.2826 51.8139 41.2019 51.7649C41.1359 51.714 41.0663 51.6933 40.9933 51.7027L38.8666 51.9778C38.7935 51.9873 38.7242 52.026 38.6587 52.0939C38.6078 52.1599 38.5871 52.2295 38.5965 52.3026L38.7922 53.8153C38.8017 53.8884 38.8394 53.9504 38.9055 54.0013C38.9861 54.0503 39.063 54.0701 39.136 54.0607L41.2627 53.7855C41.3358 53.7761 41.3978 53.7383 41.4487 53.6723C41.5142 53.6044 41.5422 53.5339 41.5328 53.4608ZM56.8218 53.3777C56.8577 53.6554 56.7866 53.9098 56.6085 54.1409C56.443 54.3555 56.2215 54.4808 55.9438 54.5167L55.3299 54.5961C55.0522 54.632 54.7987 54.5682 54.5695 54.4047C54.353 54.2246 54.2268 53.9958 54.1909 53.7181L53.2294 46.2857C53.2029 46.0811 53.0947 45.9911 52.9047 46.0157L52.0496 46.1263C51.8742 46.149 51.7998 46.2626 51.8263 46.4672L52.7877 53.8996C52.8237 54.1773 52.7525 54.4317 52.5744 54.6628C52.409 54.8774 52.1874 55.0026 51.9097 55.0386L51.3177 55.1151C51.04 55.1511 50.7866 55.0873 50.5574 54.9237C50.3409 54.7437 50.2147 54.5148 50.1787 54.2371L49.2173 46.8048C49.1908 46.6001 49.0899 46.5092 48.9145 46.5318L48.0594 46.6425C47.8694 46.667 47.7876 46.7816 47.8141 46.9863L48.7756 54.4186C48.8115 54.6963 48.7404 54.9507 48.5622 55.1818C48.3968 55.3964 48.1752 55.5217 47.8975 55.5576L47.2837 55.637C47.0059 55.6729 46.7525 55.6091 46.5233 55.4456C46.3068 55.2655 46.1806 55.0367 46.1447 54.759L45.1236 46.8662C45.065 46.4131 45.1217 45.9897 45.2937 45.5959C45.4784 45.1856 45.7392 44.8472 46.0763 44.5807C46.4133 44.3142 46.8084 44.1516 47.2615 44.093L48.9935 43.869C49.3151 43.8274 49.6159 43.8553 49.896 43.9528C50.0771 43.974 50.2598 43.9504 50.4441 43.8819C50.6902 43.7163 50.974 43.6128 51.2956 43.5712L53.0276 43.3471C53.4807 43.2885 53.9041 43.3452 54.2979 43.5171C54.6917 43.6891 55.0227 43.9509 55.2911 44.3026C55.5723 44.6377 55.7421 45.0319 55.8008 45.485L56.8218 53.3777ZM66.3336 50.676C66.4224 51.363 66.2569 51.9788 65.8369 52.5236C65.4297 53.0518 64.89 53.3594 64.2176 53.4464L61.6305 53.781C61.5575 53.7905 61.4882 53.8292 61.4226 53.8971C61.3717 53.9631 61.351 54.0327 61.3605 54.1058L61.6469 56.3201C61.6829 56.5978 61.6181 56.844 61.4527 57.0586C61.2891 57.2878 61.0685 57.4203 60.7908 57.4563L60.1769 57.5357C59.8992 57.5716 59.6448 57.5005 59.4137 57.3223C59.1991 57.1569 59.0739 56.9353 59.0379 56.6576L57.5631 45.257C57.5045 44.8039 57.5612 44.3804 57.7331 43.9867C57.9178 43.5764 58.1787 43.238 58.5157 42.9715C58.8528 42.705 59.2479 42.5424 59.701 42.4838L62.7484 42.0896C63.2015 42.031 63.625 42.0876 64.0187 42.2596C64.4125 42.4316 64.7436 42.6934 65.012 43.0451C65.2785 43.3821 65.4411 43.7772 65.4997 44.2303L66.3336 50.676ZM63.6926 50.5941L62.9722 45.0254C62.9608 44.9377 62.9149 44.8693 62.8342 44.8203C62.7682 44.7694 62.6986 44.7487 62.6255 44.7581L60.4989 45.0332C60.4258 45.0427 60.3565 45.0814 60.291 45.1493C60.2401 45.2153 60.2203 45.2922 60.2317 45.3799L60.9521 50.9487C60.9615 51.0217 60.9992 51.0837 61.0653 51.1346C61.1459 51.1836 61.2228 51.2034 61.2959 51.194L63.4225 50.9189C63.4956 50.9094 63.5576 50.8717 63.6085 50.8056C63.674 50.7377 63.702 50.6672 63.6926 50.5941ZM72.2947 51.3761C72.3306 51.6538 72.2595 51.9082 72.0814 52.1393C71.9159 52.3539 71.6944 52.4791 71.4167 52.5151L70.8686 52.586C70.1962 52.6729 69.5886 52.5138 69.0458 52.1084C68.501 51.6885 68.1842 51.1351 68.0954 50.4481L66.6262 39.0913C66.5884 38.799 66.6522 38.5455 66.8176 38.3309C66.9977 38.1144 67.2266 37.9882 67.5043 37.9523L68.1181 37.8729C68.3959 37.837 68.642 37.9017 68.8566 38.0672C69.0858 38.2307 69.2193 38.4586 69.2571 38.751L70.6724 49.6912C70.697 49.8812 70.797 49.9649 70.9724 49.9422L71.082 49.928C71.3597 49.8921 71.6058 49.9568 71.8204 50.1222C72.0496 50.2858 72.1832 50.5137 72.221 50.806L72.2947 51.3761ZM79.3137 41.2395L77.8019 53.1603C77.7187 53.7803 77.4532 54.3125 77.0054 54.7568C76.5595 55.2157 76.015 55.4868 75.3718 55.57L74.758 55.6494C74.4803 55.6853 74.2259 55.6142 73.9948 55.4361C73.7802 55.2706 73.6549 55.0491 73.619 54.7714L73.5396 54.1575C73.5036 53.8798 73.5684 53.6336 73.7338 53.419C73.9139 53.2025 74.1427 53.0763 74.4205 53.0404L75.0343 52.961C75.122 52.9497 75.1748 52.8982 75.1927 52.8068L75.4311 50.8589C75.4599 50.7363 75.4438 50.612 75.3829 50.4862L72.0348 42.1811C71.8744 41.8601 71.896 41.5675 72.0996 41.3034C72.2537 41.0011 72.4915 40.8292 72.8131 40.7876L73.4489 40.7053C73.6827 40.6751 73.8968 40.7217 74.0911 40.8451C74.2835 40.954 74.4241 41.1216 74.5128 41.3479L75.9844 44.9693C76.0066 45.0259 76.0469 45.0504 76.1054 45.0428C76.1638 45.0352 76.1966 45.0013 76.2037 44.9409L76.7053 41.0642C76.7481 40.8209 76.8414 40.6231 76.9851 40.4708C77.1416 40.3019 77.3295 40.2033 77.5487 40.1749L78.1845 40.0927C78.5207 40.0492 78.8018 40.154 79.0277 40.4071C79.2772 40.6126 79.3725 40.8901 79.3137 41.2395Z" fill="#5435EB"/>
<path d="M66.9007 56.6858C65.4805 59.8266 63.29 62.5577 60.5324 64.6258C57.7749 66.6939 54.5396 68.032 51.1268 68.5158C47.714 68.9996 44.2342 68.6135 41.0105 67.3934C37.7867 66.1732 34.9234 64.1585 32.6863 61.5362" stroke="#5435EB" stroke-width="0.89623" stroke-linecap="round" stroke-linejoin="round"/>
<path d="M29.7153 39.5907C31.1746 36.468 33.3992 33.7645 36.1824 31.7311C38.9657 29.6976 42.2175 28.4002 45.6361 27.9591C49.0546 27.5181 52.5293 27.9477 55.7375 29.2081C58.9457 30.4685 61.7835 32.5189 63.9877 35.169" stroke="#5435EB" stroke-width="0.89623" stroke-linecap="round" stroke-linejoin="round"/>
</svg>
