<svg width="48" height="48" viewBox="0 0 48 48" fill="none" xmlns="http://www.w3.org/2000/svg">
<path d="M43.0567 9.25499C51.1129 19.7125 49.1118 34.7915 38.5871 42.9349C28.0623 51.0784 12.9995 49.2025 4.94329 38.745C-3.11292 28.2875 -1.1118 13.2085 9.41293 5.06505C19.9377 -3.07839 35.0005 -1.20249 43.0567 9.25499Z" fill="#5435EB"/>
<path d="M34.5505 30.3476C34.7288 31.2961 34.6557 32.2101 34.3311 33.0898C34.0065 33.9695 33.4945 34.721 32.795 35.3441C32.0955 35.9672 31.2726 36.3681 30.3262 36.5468L22.7553 37.9764C21.8089 38.1551 20.8837 38.0843 19.9796 37.764C19.1018 37.4387 18.352 36.9255 17.7302 36.2245C17.1085 35.5235 16.7084 34.6988 16.5301 33.7503L16.3072 32.5648C16.2131 32.0642 16.3047 31.6104 16.5821 31.2034C16.8808 30.7651 17.2799 30.4988 17.7793 30.4045L18.8834 30.196C19.3566 30.1066 19.7987 30.2141 20.2098 30.5184C20.6423 30.7914 20.9055 31.1782 20.9996 31.6787L21.2225 32.8643C21.2473 32.996 21.3246 33.1178 21.4545 33.2297C21.6058 33.3102 21.7471 33.3381 21.8786 33.3133L29.4495 31.8837C29.5809 31.8589 29.6893 31.7839 29.7747 31.6586C29.8551 31.507 29.8829 31.3654 29.8581 31.2337L29.182 27.6375C29.1275 27.3477 28.9614 27.1881 28.6837 27.1587L18.5514 25.3891C17.4305 25.2188 16.4679 24.7322 15.6637 23.9292C14.8594 23.1263 14.3533 22.1716 14.1452 21.0651L13.4766 17.5084C13.2933 16.5337 13.364 15.6064 13.6886 14.7267C14.0132 13.847 14.5252 13.0956 15.2247 12.4725C15.9504 11.8444 16.7865 11.441 17.7329 11.2623L25.3038 9.83268C26.2502 9.65398 27.1623 9.72728 28.0401 10.0526C28.9178 10.3779 29.6676 10.891 30.2894 11.592C30.9112 12.2931 31.3137 13.131 31.497 14.1057L31.6976 15.1727C31.7917 15.6733 31.6869 16.1295 31.3833 16.5415C31.1059 16.9485 30.7175 17.1992 30.218 17.2935L29.1534 17.4946C28.6539 17.5889 28.1879 17.4995 27.7555 17.2265C27.3494 16.9486 27.0993 16.5593 27.0052 16.0588L26.8046 14.9918C26.7352 14.6229 26.5297 14.4708 26.1879 14.5353L18.617 15.9649C18.4856 15.9897 18.364 16.0672 18.2524 16.1974C18.1671 16.3227 18.1392 16.4643 18.169 16.6224L18.8376 20.179C18.8971 20.4952 19.0656 20.6679 19.3434 20.6973L29.5151 22.4595C30.6097 22.6348 31.5591 23.1239 32.3634 23.9268C33.1677 24.7298 33.6713 25.6713 33.8744 26.7515L34.5505 30.3476Z" fill="white"/>
</svg>
